<?xml version="1.0" encoding="UTF-8"?>
<svg xmlns="http://www.w3.org/2000/svg"
     xmlns:xlink="http://www.w3.org/1999/xlink"
     version="1.2"
     width="100mm" height="100mm" viewBox="0 0 100 100"
     stroke="none"
     fill="#000000"
     stroke-width="0.3"
     font-size="3.88"
>
<defs>
  <marker id="arrow" markerWidth="15" markerHeight="7" refX="5" refY="3.5" orient="auto" markerUnits="strokeWidth">
    <path d="M0,0 L15,3.5 L0,7 z" stroke="context-stroke" fill="context-stroke"/>
  </marker>
</defs>
<g fill="#000000" fill-opacity="0.000" id="img-82ca4e6a-1">
  <g transform="translate(50,50)">
    <path d="M-50,-50 L50,-50 50,50 -50,50  z" class="primitive"/>
  </g>
</g>
<g stroke-width="1.22" stroke="#D3D3D3" id="img-82ca4e6a-2">
</g>
<g stroke-width="1.22" stroke="#D3D3D3" id="img-82ca4e6a-3">
  <g transform="translate(17.92,61.58)">
    <path fill="none" d="M-6.11,4.32 L6.11,-4.32 " class="primitive"/>
  </g>
  <g transform="translate(30.26,70.75)">
    <path fill="none" d="M-17.7,-1.94 L17.7,1.94 " class="primitive"/>
  </g>
  <g transform="translate(41.88,61.82)">
    <path fill="none" d="M-7.9,-6.55 L7.9,6.55 " class="primitive"/>
  </g>
  <g transform="translate(26.07,42.21)">
    <path fill="none" d="M2.9,6.46 L-2.9,-6.46 " class="primitive"/>
  </g>
  <g transform="translate(72.13,81.74)">
    <path fill="none" d="M-12.26,-6.23 L12.26,6.23 " class="primitive"/>
  </g>
  <g transform="translate(15.93,20.08)">
    <path fill="none" d="M2.07,4.37 L-2.07,-4.37 " class="primitive"/>
  </g>
</g>
<g fill="#D3D3D3" id="img-82ca4e6a-4">
</g>
<g fill="#D3D3D3" id="img-82ca4e6a-5">
  <g transform="translate(25.1,56.51)">
    <path d="M-1.89,-0.41 L2.13,-1.51 -0.24,1.92  z" class="primitive"/>
  </g>
  <g transform="translate(49.25,72.84)">
    <path d="M-1.14,-1.56 L2.59,0.28 -1.45,1.27  z" class="primitive"/>
  </g>
  <g transform="translate(50.79,69.2)">
    <path d="M-0.1,-1.93 L2.01,1.67 -1.91,0.26  z" class="primitive"/>
  </g>
  <g transform="translate(22.63,34.56)">
    <path d="M-0.77,1.77 L-1.07,-2.38 1.83,0.61  z" class="primitive"/>
  </g>
  <g transform="translate(85.55,88.56)">
    <path d="M-0.52,-1.86 L2.33,1.18 -1.81,0.68  z" class="primitive"/>
  </g>
  <g transform="translate(13.31,14.54)">
    <path d="M-0.73,1.79 L-1.12,-2.36 1.85,0.57  z" class="primitive"/>
  </g>
</g>
<g font-size="4" fill="#000000" id="img-82ca4e6a-6">
</g>
<g stroke-width="0" stroke="#000000" stroke-opacity="0.000" fill="#40E0D0" id="img-82ca4e6a-7">
  <g transform="translate(8.33,68.35)">
    <circle cx="0" cy="0" r="4.08" class="primitive"/>
  </g>
  <g transform="translate(30.71,52.55)">
    <circle cx="0" cy="0" r="4.08" class="primitive"/>
  </g>
  <g transform="translate(56.08,73.59)">
    <circle cx="0" cy="0" r="4.08" class="primitive"/>
  </g>
  <g transform="translate(19.82,28.29)">
    <circle cx="0" cy="0" r="4.08" class="primitive"/>
  </g>
  <g transform="translate(91.67,91.67)">
    <circle cx="0" cy="0" r="4.08" class="primitive"/>
  </g>
  <g transform="translate(10.37,8.33)">
    <circle cx="0" cy="0" r="4.08" class="primitive"/>
  </g>
</g>
<g font-family="Helvetica" font-size="4" fill="#000000" id="img-82ca4e6a-8">
</g>
<g font-family="Helvetica" font-size="4" fill="#000000" id="img-82ca4e6a-9">
  <g transform="translate(50,0)">
    <g class="primitive">
      <text text-anchor="middle" dy="0.35em"></text>
    </g>
  </g>
</g>
</svg>
